<mxfile host="app.diagrams.net" modified="2024-06-17T08:41:46.013Z" agent="Mozilla/5.0 (Macintosh; Intel Mac OS X 10_15_7) AppleWebKit/537.36 (KHTML, like Gecko) Chrome/126.0.0.0 Safari/537.36" etag="rcwjNj8oHc55CuOq42Y3" version="24.5.4" type="device">
  <diagram name="Page-1" id="2l1i9WvKbdir9KuREX8I">
    <mxGraphModel dx="984" dy="658" grid="1" gridSize="10" guides="1" tooltips="1" connect="1" arrows="1" fold="1" page="1" pageScale="1" pageWidth="827" pageHeight="1169" background="#00FF22" math="0" shadow="0">
      <root>
        <mxCell id="0" />
        <mxCell id="1" parent="0" />
        <mxCell id="t1L0owF7gcLZaHcHC6Ox-1" value="" style="rounded=1;whiteSpace=wrap;html=1;" vertex="1" parent="1">
          <mxGeometry x="40" y="10" width="760" height="30" as="geometry" />
        </mxCell>
        <mxCell id="t1L0owF7gcLZaHcHC6Ox-2" value="home" style="rounded=1;whiteSpace=wrap;html=1;" vertex="1" parent="1">
          <mxGeometry x="50" y="15" width="70" height="20" as="geometry" />
        </mxCell>
        <mxCell id="t1L0owF7gcLZaHcHC6Ox-4" value="about me" style="rounded=1;whiteSpace=wrap;html=1;" vertex="1" parent="1">
          <mxGeometry x="130" y="15" width="70" height="20" as="geometry" />
        </mxCell>
        <mxCell id="t1L0owF7gcLZaHcHC6Ox-5" value="Projects" style="rounded=1;whiteSpace=wrap;html=1;" vertex="1" parent="1">
          <mxGeometry x="210" y="15" width="70" height="20" as="geometry" />
        </mxCell>
        <mxCell id="t1L0owF7gcLZaHcHC6Ox-6" value="Contact" style="rounded=1;whiteSpace=wrap;html=1;" vertex="1" parent="1">
          <mxGeometry x="290" y="15" width="70" height="20" as="geometry" />
        </mxCell>
        <mxCell id="t1L0owF7gcLZaHcHC6Ox-7" value="git" style="rounded=1;whiteSpace=wrap;html=1;" vertex="1" parent="1">
          <mxGeometry x="770" y="10" width="30" height="30" as="geometry" />
        </mxCell>
        <mxCell id="t1L0owF7gcLZaHcHC6Ox-10" value="" style="rounded=0;whiteSpace=wrap;html=1;" vertex="1" parent="1">
          <mxGeometry x="40" y="200" width="760" height="230" as="geometry" />
        </mxCell>
        <mxCell id="t1L0owF7gcLZaHcHC6Ox-11" value="image of le me&lt;div&gt;&lt;br&gt;&lt;/div&gt;" style="rounded=1;whiteSpace=wrap;html=1;" vertex="1" parent="1">
          <mxGeometry x="600" y="220" width="170" height="190" as="geometry" />
        </mxCell>
        <mxCell id="t1L0owF7gcLZaHcHC6Ox-12" value="placeholder text for about me" style="rounded=0;whiteSpace=wrap;html=1;" vertex="1" parent="1">
          <mxGeometry x="65" y="260" width="515" height="140" as="geometry" />
        </mxCell>
        <mxCell id="t1L0owF7gcLZaHcHC6Ox-14" value="ABOUT ME" style="rounded=0;whiteSpace=wrap;html=1;" vertex="1" parent="1">
          <mxGeometry x="65" y="210" width="165" height="30" as="geometry" />
        </mxCell>
        <mxCell id="t1L0owF7gcLZaHcHC6Ox-16" value="try and make expanding project" style="rounded=0;whiteSpace=wrap;html=1;" vertex="1" parent="1">
          <mxGeometry x="40" y="584.5" width="360" height="290" as="geometry" />
        </mxCell>
        <mxCell id="t1L0owF7gcLZaHcHC6Ox-17" value="" style="rounded=0;whiteSpace=wrap;html=1;" vertex="1" parent="1">
          <mxGeometry x="440" y="584.5" width="360" height="290" as="geometry" />
        </mxCell>
        <mxCell id="t1L0owF7gcLZaHcHC6Ox-19" value="nice hand drawn logo&lt;div&gt;for me&lt;/div&gt;" style="rounded=1;whiteSpace=wrap;html=1;" vertex="1" parent="1">
          <mxGeometry x="680" y="80" width="120" height="60" as="geometry" />
        </mxCell>
        <mxCell id="t1L0owF7gcLZaHcHC6Ox-20" value="footer with contact deets" style="rounded=0;whiteSpace=wrap;html=1;" vertex="1" parent="1">
          <mxGeometry x="40" y="1060" width="760" height="60" as="geometry" />
        </mxCell>
        <mxCell id="t1L0owF7gcLZaHcHC6Ox-21" value="summary of projects below,&amp;nbsp;" style="rounded=0;whiteSpace=wrap;html=1;" vertex="1" parent="1">
          <mxGeometry x="40" y="480" width="760" height="80" as="geometry" />
        </mxCell>
      </root>
    </mxGraphModel>
  </diagram>
</mxfile>
